<?xml version="1.0" encoding="utf-8"?><svg xmlns="http://www.w3.org/2000/svg" xmlns:xlink="http://www.w3.org/1999/xlink" width="1680" height="834" preserveAspectRatio="xMidYMid" viewBox="0 0 1680 834" style="z-index:1;margin-right:-2px;display:block;background-repeat-y:initial;background-repeat-x:initial;background-color:rgb(1, 44, 50);animation-play-state:paused" ><g transform="translate(840,417) scale(1,1) translate(-840,-417)" style="transform:matrix(1, 0, 0, 1, 0, 0);animation-play-state:paused" ><path d="M -100 493.68 C -69.02 486.73 -68.24 489.03 -39.35 489.03 S -7.42 502.26 21.29 502.26 S 52.03 484.79 81.94 484.79 S 113.17 486.69 142.58 486.69 S 174.96 500.91 203.23 500.91 S 235.24 483.93 263.87 483.93 S 294.71 484.16 324.52 484.16 S 355.21 491.99 385.16 491.99 S 416.16 489.39 445.81 489.39 S 476.7 503.48 506.45 503.48 S 538.46 494.84 567.1 494.84 S 598.22 487.19 627.74 487.19 S 658.7 492.73 688.39 492.73 S 718.97 503.34 749.03 503.34 S 781.36 500.86 809.68 500.86 S 840.01 501.63 870.32 501.63 S 900.77 494.26 930.97 494.26 S 962.57 496.68 991.61 496.68 S 1023.84 483.76 1052.26 483.76 S 1084.16 496.66 1112.9 496.66 S 1144.23 499.86 1173.55 499.86 S 1205.18 499.75 1234.19 499.75 S 1264.66 490.61 1294.84 490.61 S 1325.99 497.33 1355.48 497.33 S 1387.73 486.61 1416.13 486.61 S 1446.62 500.26 1476.77 500.26 S 1507.59 489.2 1537.42 489.2 S 1569.32 496.52 1598.06 496.52 S 1628.81 486.36 1658.71 486.36 S 1690.88 495.7 1719.35 495.7 S 1751.7 504.19 1780 504.19 S 1810.66 488.07 1840.65 488.07 L 1780 834 L -100 834 Z" fill="#0f3135" stroke-width="0" transform="matrix(1,0,0,1,0,0)" style="transform:matrix(1, 0, 0, 1, 0, 0);animation-play-state:paused" ></path>
<path d="M -100 513.4 C -67.35 515.23 -67.52 510.68 -37.75 510.68 S -5.94 515.11 24.5 515.11 S 56.12 525.98 86.75 525.98 S 118.82 514.77 149.01 514.77 S 180.35 525.72 211.26 525.72 S 242.7 513.68 273.51 513.68 S 304.72 512.06 335.76 512.06 S 367 507.19 398.01 507.19 S 429.5 528.14 460.26 528.14 S 492.45 513.2 522.52 513.2 S 554.34 514.35 584.77 514.35 S 617.96 509.02 647.02 509.02 S 679.4 522.71 709.27 522.71 S 740.87 508.64 771.52 508.64 S 804.09 511.06 833.77 511.06 S 865.24 511.71 896.03 511.71 S 928.15 527.32 958.28 527.32 S 990.45 513.41 1020.53 513.41 S 1053.74 519.18 1082.78 519.18 S 1114.41 516.09 1145.03 516.09 S 1177.48 521.54 1207.28 521.54 S 1240.2 515.86 1269.54 515.86 S 1301.78 516.03 1331.79 516.03 S 1363.64 519.55 1394.04 519.55 S 1426.53 514.06 1456.29 514.06 S 1489.21 521.19 1518.54 521.19 S 1551.25 521.82 1580.79 521.82 S 1613.87 517.22 1643.05 517.22 S 1674.82 516.35 1705.3 516.35 S 1736.71 510.06 1767.55 510.06 S 1799.97 522.36 1829.8 522.36 L 1780 834 L -100 834 Z" fill="#254346" stroke-width="0" transform="matrix(1,0,0,1,1.1340199708938599,0)" style="transform:matrix(1, 0, 0, 1, 1.13402, 0);animation-play-state:paused" ></path>
<path d="M -100 529.15 C -67.2 543.31 -67.37 535.38 -36.05 535.38 S -2.23 551.94 27.89 551.94 S 60.63 543.76 91.84 543.76 S 125 537.74 155.78 537.74 S 188.48 538.46 219.73 538.46 S 252.46 528.37 283.67 528.37 S 316.55 553.02 347.62 553.02 S 381.33 532.08 411.56 532.08 S 445.22 546.49 475.51 546.49 S 507.49 536.29 539.46 536.29 S 572.91 550.49 603.4 550.49 S 635.66 545.12 667.35 545.12 S 700.37 542.26 731.29 542.26 S 763.64 544.44 795.24 544.44 S 827.69 537.57 859.18 537.57 S 893.2 535.55 923.13 535.55 S 956.55 548.21 987.07 548.21 S 1019.12 537.14 1051.02 537.14 S 1085.07 543.46 1114.97 543.46 S 1147.41 536.54 1178.91 536.54 S 1211.89 549.3 1242.86 549.3 S 1275.41 545.46 1306.8 545.46 S 1338.88 549.31 1370.75 549.31 S 1403.23 532.22 1434.69 532.22 S 1468.06 533.64 1498.64 533.64 S 1532.15 538.47 1562.59 538.47 S 1596.44 553.87 1626.53 553.87 S 1660.47 549.04 1690.48 549.04 S 1723.54 541.98 1754.42 541.98 S 1786.81 545.19 1818.37 545.19 L 1780 834 L -100 834 Z" fill="#3b5658" stroke-width="0" transform="matrix(1,0,0,1,3.5863146781921387,0)" style="transform:matrix(1, 0, 0, 1, 3.58631, 0);animation-play-state:paused" ></path>
<path d="M -100 560.76 C -65.47 562.13 -67.12 559.61 -34.27 559.61 S -0.69 557.1 31.47 557.1 S 65.68 573.24 97.2 573.24 S 131.16 555.45 162.94 555.45 S 197.33 578.37 228.67 578.37 S 262.82 547.41 294.41 547.41 S 327.84 573.84 360.14 573.84 S 394.04 560.4 425.87 560.4 S 458.8 573.64 491.61 573.64 S 524.66 546.61 557.34 546.61 S 590.29 575.36 623.08 575.36 S 657.51 575.95 688.81 575.95 S 722.35 563.83 754.55 563.83 S 788.16 552.04 820.28 552.04 S 854.87 568.34 886.01 568.34 S 919.9 551.12 951.75 551.12 S 986.54 569.64 1017.48 569.64 S 1051.46 551.48 1083.22 551.48 S 1116.25 559.75 1148.95 559.75 S 1182.07 565.47 1214.69 565.47 S 1247.65 567.76 1280.42 567.76 S 1313.7 564.12 1346.15 564.12 S 1381.09 568.61 1411.89 568.61 S 1445.79 549.5 1477.62 549.5 S 1510.67 565.68 1543.36 565.68 S 1576.52 547.03 1609.09 547.03 S 1644.03 573.9 1674.83 573.9 S 1708.33 552.5 1740.56 552.5 S 1773.96 559.08 1806.29 559.08 L 1780 834 L -100 834 Z" fill="#51696b" stroke-width="0" transform="matrix(1,0,0,1,6.4136857986450195,0)" style="transform:matrix(1, 0, 0, 1, 6.41369, 0);animation-play-state:paused" ></path>
<path d="M -100 587.36 C -65.47 586.99 -65.68 598.16 -32.37 598.16 S 2.25 575.5 35.25 575.5 S 70.71 588.8 102.88 588.8 S 137.15 583.4 170.5 583.4 S 204.72 601.42 238.13 601.42 S 273.79 571.05 305.76 571.05 S 339.6 580.75 373.38 580.75 S 408.27 567.84 441.01 567.84 S 476.51 591.47 508.63 591.47 S 544.13 591.67 576.26 591.67 S 611.33 597.79 643.88 597.79 S 677.85 572.9 711.51 572.9 S 746.62 590.14 779.14 590.14 S 813.55 587.54 846.76 587.54 S 881.42 596.12 914.39 596.12 S 949.44 585.79 982.01 585.79 S 1016.53 597.15 1049.64 597.15 S 1083.74 583.32 1117.27 583.32 S 1151.53 597.19 1184.89 597.19 S 1220.45 582.13 1252.52 582.13 S 1286.59 593.71 1320.14 593.71 S 1355.3 580.55 1387.77 580.55 S 1422.93 603.75 1455.4 603.75 S 1489.25 572.73 1523.02 572.73 S 1557.01 593.46 1590.65 593.46 S 1625.98 586.49 1658.27 586.49 S 1692.9 603.26 1725.9 603.26 S 1761.24 578.38 1793.53 578.38 L 1780 834 L -100 834 Z" fill="#677d7f" stroke-width="0" transform="matrix(1,0,0,1,8.86598014831543,0)" style="transform:matrix(1, 0, 0, 1, 8.86598, 0);animation-play-state:paused" ></path>
<path d="M -100 595.65 C -63.17 596.38 -63.89 629.48 -30.37 629.48 S 4.97 588.19 39.26 588.19 S 75.82 622.69 108.89 622.69 S 145.24 604.79 178.52 604.79 S 213.67 618.76 248.15 618.76 S 284.6 598.28 317.78 598.28 S 353.35 628.24 387.41 628.24 S 422.85 596.57 457.04 596.57 S 493.14 616.68 526.67 616.68 S 562.23 592.5 596.3 592.5 S 631.34 611.81 665.93 611.81 S 702.81 595.45 735.56 595.45 S 770.71 613.76 805.19 613.76 S 841.99 589.04 874.81 589.04 S 909.96 588.1 944.44 588.1 S 980.14 607.34 1014.07 607.34 S 1050.67 624.35 1083.7 624.35 S 1118.53 610.76 1153.33 610.76 S 1189.36 619.98 1222.96 619.98 S 1257.93 608.11 1292.59 608.11 S 1329.06 621.04 1362.22 621.04 S 1398.12 604.13 1431.85 604.13 S 1468.21 624.61 1501.48 624.61 S 1538.01 587.99 1571.11 587.99 S 1606.13 621.26 1640.74 621.26 S 1676.77 589.39 1710.37 589.39 S 1745.65 612.45 1780 612.45 S 1816.58 595.5 1849.63 595.5 L 1780 834 L -100 834 Z" fill="#7e9193" stroke-width="0" transform="matrix(1,0,0,1,10,0)" style="transform:matrix(1, 0, 0, 1, 10, 0);animation-play-state:paused" ></path>
<path d="M -100 623.02 C -63.95 627.2 -62.64 652.4 -28.24 652.4 S 9.13 612.45 43.51 612.45 S 80.05 624.46 115.27 624.46 S 151.29 609.49 187.02 609.49 S 223.98 650.52 258.78 650.52 S 296.45 611.12 330.53 611.12 S 367.32 651.93 402.29 651.93 S 439.92 622.99 474.05 622.99 S 510.44 638.33 545.8 638.33 S 583.13 621.44 617.56 621.44 S 653.63 647.37 689.31 647.37 S 725.89 642.5 761.07 642.5 S 798.88 653.64 832.82 653.64 S 869.17 647.31 904.58 647.31 S 941.67 645.12 976.34 645.12 S 1014.02 641.56 1048.09 641.56 S 1084.51 638.4 1119.85 638.4 S 1156.56 617.85 1191.6 617.85 S 1229.49 634.53 1263.36 634.53 S 1300.98 620.46 1335.11 620.46 S 1371.17 629.42 1406.87 629.42 S 1442.84 624.81 1478.63 624.81 S 1514.82 651.96 1550.38 651.96 S 1587.27 622.19 1622.14 622.19 S 1659.79 646.59 1693.89 646.59 S 1731.21 614.63 1765.65 614.63 S 1802.24 642.9 1837.4 642.9 L 1780 834 L -100 834 Z" fill="#95a6a7" stroke-width="0" transform="matrix(1,0,0,1,8.86598014831543,0)" style="transform:matrix(1, 0, 0, 1, 8.86598, 0);animation-play-state:paused" ></path>
<path d="M -100 647.78 C -61.71 645.99 -62.28 671.51 -25.98 671.51 S 12.14 661.3 48.03 661.3 S 86.02 672.15 122.05 672.15 S 159.46 662.08 196.06 662.08 S 233.36 632.27 270.08 632.27 S 307.44 641.46 344.09 641.46 S 381.34 670.13 418.11 670.13 S 456.62 643.11 492.13 643.11 S 529.19 671.88 566.14 671.88 S 603.56 630.1 640.16 630.1 S 677.21 675.43 714.17 675.43 S 751.26 632.99 788.19 632.99 S 826.87 645.67 862.2 645.67 S 900.28 648.55 936.22 648.55 S 974.37 643.97 1010.24 643.97 S 1049.06 643.7 1084.25 643.7 S 1121.57 671.25 1158.27 671.25 S 1197.26 641.82 1232.28 641.82 S 1271.27 678.14 1306.3 678.14 S 1344.85 634.03 1380.31 634.03 S 1417.53 670.5 1454.33 670.5 S 1491.76 643.37 1528.35 643.37 S 1567.17 675.25 1602.36 675.25 S 1640.43 637.98 1676.38 637.98 S 1713.44 663.09 1750.39 663.09 S 1788.76 639.73 1824.41 639.73 L 1780 834 L -100 834 Z" fill="#adbcbc" stroke-width="0" transform="matrix(1,0,0,1,6.4136857986450195,0)" style="transform:matrix(1, 0, 0, 1, 6.41369, 0);animation-play-state:paused" ></path>
<path d="M -100 652.7 C -60.54 652.32 -59.78 696.45 -23.58 696.45 S 15.38 652.08 52.85 652.08 S 92.01 654.93 129.27 654.93 S 168.29 656.42 205.69 656.42 S 245.81 691.26 282.11 691.26 S 320.38 669.35 358.54 669.35 S 398.65 694.93 434.96 694.93 S 473.38 652.13 511.38 652.13 S 551.51 690.39 587.8 690.39 S 627.27 666.46 664.23 666.46 S 703.02 655.99 740.65 655.99 S 779.43 664.83 817.07 664.83 S 855.71 658.4 893.5 658.4 S 932.43 652.13 969.92 652.13 S 1008.18 700.88 1046.34 700.88 S 1085.69 651.79 1122.76 651.79 S 1161.09 697.17 1199.19 697.17 S 1238.02 670.06 1275.61 670.06 S 1314.66 699.83 1352.03 699.83 S 1392.07 686.85 1428.46 686.85 S 1468.55 703.27 1504.88 703.27 S 1545.15 664.5 1581.3 664.5 S 1620.53 696.02 1657.72 696.02 S 1697.33 663.07 1734.15 663.07 S 1774.32 698.89 1810.57 698.89 L 1780 834 L -100 834 Z" fill="#c6d2d2" stroke-width="0" transform="matrix(1,0,0,1,3.5863142013549805,0)" style="transform:matrix(1, 0, 0, 1, 3.58631, 0);animation-play-state:paused" ></path>
<path d="M -100 727.21 C -58.46 725.77 -58.43 681.51 -21.01 681.51 S 19.57 677.12 57.98 677.12 S 98.44 715.39 136.97 715.39 S 178.41 685.95 215.97 685.95 S 256.43 725.57 294.96 725.57 S 335.49 674.82 373.95 674.82 S 414.91 723.4 452.94 723.4 S 493.79 687 531.93 687 S 573.33 727.3 610.92 727.3 S 650.64 677.75 689.92 677.75 S 730.53 709.74 768.91 709.74 S 809.52 711.31 847.9 711.31 S 888.62 716.61 926.89 716.61 S 968.35 672.82 1005.88 672.82 S 1046.89 714.25 1084.87 714.25 S 1126.43 718.27 1163.87 718.27 S 1203.75 710.12 1242.86 710.12 S 1282.96 690.71 1321.85 690.71 S 1361.96 716.11 1400.84 716.11 S 1442.13 678.12 1479.83 678.12 S 1520.62 723.31 1558.82 723.31 S 1598.34 680.53 1637.82 680.53 S 1678.81 725.31 1716.81 725.31 S 1756.6 691.51 1795.8 691.51 L 1780 834 L -100 834 Z" fill="#dfe8e8" stroke-width="0" transform="matrix(1,0,0,1,1.1340198516845703,0)" style="transform:matrix(1, 0, 0, 1, 1.13402, 0);animation-play-state:paused" ></path></g></svg>